<?xml version="1.0" standalone="no"?>
<!DOCTYPE svg PUBLIC "-//W3C//DTD SVG 20010904//EN"
 "http://www.w3.org/TR/2001/REC-SVG-20010904/DTD/svg10.dtd">
<svg version="1.0" xmlns="http://www.w3.org/2000/svg"
 width="512.000000pt" height="512.000000pt" viewBox="0 0 512.000000 512.000000"
 preserveAspectRatio="xMidYMid meet">

<g transform="translate(0.000000,512.000000) scale(0.100000,-0.100000)"
fill="#FFFFFF" stroke="none"> <!-- Změněno na bílou -->
<path d="M1730 4935 c-751 -101 -1425 -191 -1497 -200 l-133 -18 0 -2153 c0
-1937 2 -2154 15 -2154 16 0 2912 -395 2973 -405 l32 -6 0 221 0 220 795 0
c549 0 810 3 847 11 107 23 199 102 237 203 l21 57 -2 1867 -3 1867 -26 55
c-33 70 -89 126 -159 159 l-55 26 -827 3 -828 2 0 215 c0 166 -3 215 -12 214
-7 -1 -627 -83 -1378 -184z m3037 -455 c68 -41 63 114 63 -1917 0 -1781 -1
-1839 -19 -1869 -41 -67 -3 -64 -890 -64 l-801 0 0 495 0 495 703 0 c661 0
704 2 742 19 46 21 79 54 94 94 8 19 11 266 11 761 l0 732 -22 44 c-13 24 -36
53 -51 64 -28 21 -41 21 -750 26 l-722 5 -3 568 -2 567 807 0 c784 0 809 -1
840 -20z m-1937 -1515 l0 -115 -145 0 -145 0 0 -470 0 -470 -74 0 c-40 0 -101
3 -135 6 l-61 7 0 460 0 459 -155 -4 -156 -4 3 106 3 105 380 16 c209 9 404
17 433 17 l52 2 0 -115z m-968 -484 c93 -299 167 -545 166 -547 -2 -1 -62 0
-135 3 l-131 6 -32 111 c-18 61 -37 126 -42 144 l-9 32 -150 0 c-111 0 -151
-3 -154 -12 -2 -7 -18 -67 -36 -132 l-32 -119 -110 6 c-60 3 -111 8 -114 10
-2 3 63 236 145 518 l150 514 48 6 c27 3 98 6 158 5 l109 -1 169 -544z m-1063
495 c59 -20 105 -54 135 -99 66 -103 35 -246 -69 -311 l-47 -30 45 -23 c55
-27 110 -90 125 -142 47 -157 -33 -305 -191 -353 -61 -18 -86 -20 -240 -15
-95 3 -182 8 -194 12 l-23 7 0 473 0 473 83 11 c45 6 98 13 117 15 64 7 217
-3 259 -18z m3761 -634 c0 -488 -2 -560 -16 -580 l-15 -22 -705 0 -704 0 0
200 c0 110 3 200 8 200 4 0 24 -11 43 -24 45 -31 69 -80 69 -143 0 -48 1 -50
58 -90 54 -38 60 -40 82 -27 57 31 153 10 202 -45 25 -27 26 -27 92 -18 67 10
68 11 88 54 27 58 68 86 135 91 43 4 53 8 53 23 0 10 -13 27 -29 38 -23 17
-31 31 -36 72 -6 43 -4 56 13 79 16 21 19 37 15 67 -5 36 -1 44 35 82 29 31
46 41 59 37 14 -4 28 4 51 30 44 50 41 68 -17 99 -61 34 -91 84 -91 152 0 48
-1 50 -56 90 -54 40 -57 41 -90 27 -68 -29 -159 -6 -200 50 -19 25 -20 25 -86
14 -66 -11 -68 -12 -89 -55 -28 -58 -87 -93 -156 -93 -50 0 -51 -1 -89 -55
-35 -52 -37 -58 -26 -89 18 -48 14 -107 -8 -143 -11 -18 -22 -33 -25 -33 -3 0
-5 128 -5 285 l0 285 720 0 720 0 0 -558z m-889 192 c75 -22 140 -88 165 -167
69 -219 -185 -408 -379 -281 -169 111 -141 370 49 444 61 24 95 24 165 4z"/>
<path d="M1514 2814 c-13 -60 -74 -300 -84 -334 -21 -71 -22 -70 100 -70 61 0
110 4 110 9 0 4 -13 53 -29 107 -16 55 -41 146 -56 204 -15 58 -28 107 -30
109 -2 2 -7 -10 -11 -25z"/>
<path d="M530 2714 l0 -117 68 5 c79 6 126 27 147 68 25 49 19 88 -19 126 -33
33 -36 34 -115 34 l-81 0 0 -116z"/>
<path d="M530 2301 l0 -141 70 0 c39 0 86 6 105 14 96 40 99 192 6 241 -17 8
-64 18 -106 22 l-75 6 0 -142z"/>
<path d="M4121 2362 c-13 -2 -39 -19 -56 -38 -20 -21 -42 -34 -57 -34 -40 0
-62 -33 -59 -88 1 -37 -3 -52 -17 -65 -27 -24 -17 -65 24 -103 23 -21 34 -41
34 -59 0 -40 36 -65 83 -58 30 4 45 1 67 -15 38 -28 80 -21 102 18 12 21 27
31 55 36 52 9 71 36 65 89 -3 34 0 47 17 64 30 30 21 80 -19 103 -21 12 -31
27 -36 54 -10 52 -38 73 -87 66 -28 -3 -46 0 -65 14 -15 11 -38 18 -51 16z
m115 -156 c29 -29 34 -41 34 -81 0 -40 -5 -52 -34 -81 -29 -29 -41 -34 -80
-34 -36 0 -52 6 -77 28 -41 37 -50 102 -19 150 23 38 49 50 104 51 30 1 45 -6
72 -33z"/>
</g>
</svg>
